PathFileType	4	(X/Y/Z)	C:/Users/beibeiliu/ov580/test_trc/User1\sequence.18_training_dense_left.trc
DataRate	CameraRate	NumFrames	NumMarkers	Units	OrigDataRate	OrigDataStartFrame	OrigNumFrames
120	120	16	19	mm	120	36	286
Frame#	Time	ThumbCMC			ThumbMCP			ThumbIP			ThumbTip			IndexMCP			IndexPIP			IndexTip			MiddleMCP			MiddlePIP			MiddleTip			RingMCP			RingPIP			RingTip			PinkyMCP			PinkyPIP			PinkyTip			BackHand1			BackHand2			BackHand3	
		X0	Y0	Z0	X1	Y1	Z1	X2	Y2	Z2	X3	Y3	Z3	X4	Y4	Z4	X5	Y5	Z5	X6	Y6	Z6	X7	Y7	Z7	X8	Y8	Z8	X9	Y9	Z9	X10	Y10	Z10	X11	Y11	Z11	X12	Y12	Z12	X13	Y13	Z13	X14	Y14	Z14	X15	Y15	Z15	X16	Y16	Z16	X17	Y17	Z17	X18	Y18	Z18	
35	0.291667	-165.89	59.6097	55.4401	-139.636	69.5387	24.6197	-140.771	78.7102	-1.6354	-158.368	79.2337	-26.0452	-161.243	133.708	6.47258	-144.006	129.36	-23.9903	-141.254	97.7093	-18.2933	-183.207	139.075	-13.0941	-161.951	129.7	-38.6269	-157.555	92.2612	-29.9907	-201.123	126.896	-22.1083	-179.235	117.082	-48.5607	-174.804	86.2981	-42.0088	-218.708	109.108	-26.0618	-196.629	103.664	-46.0542	-182.516	78.3408	-45.7755	-224.867	97.7222	25.4124	-236.598	72.5753	48.5281	-201.48	86.8531	52.7913	
36	0.3	-165.512	59.2568	55.8229	-141.094	67.3826	24.2631	-141.261	75.5867	-2.68487	-157.622	76.1382	-32.2118	-163.787	129.267	1.88033	-149.091	126.251	-26.0431	-143.548	91.2012	-18.2562	-182.229	133.879	-11.9538	-161.111	127.602	-38.7981	-161.174	88.0141	-31.7742	-201.27	121.384	-21.9957	-180.862	114.527	-47.5488	-174.498	78.6375	-36.8375	-215.496	103.897	-25.9134	-195.337	98.8346	-43.6264	-182.264	69.1281	-41.5722	-227.299	90.4534	24.2519	-235.829	70.4851	47.5861	-202.203	85.3691	51.9919	
37	0.308333	-166.267	58.459	53.4593	-140.865	65.5027	22.6983	-140.64	71.5122	-3.60105	-157.142	71.8656	-32.7385	-161.013	126.77	-3.29494	-145.016	117.468	-28.2595	-139.141	85.4974	-15.4045	-183.167	127.39	-14.332	-162.103	119.016	-41.6588	-161.979	82.1586	-30.6566	-201.569	116.33	-25.17	-176.655	104.718	-48.6711	-177.973	70.7561	-36.5601	-219.422	96.7487	-24.8376	-196.682	92.3241	-46.8186	-180.73	66.6272	-37.798	-223.174	86.2827	27.1053	-238.23	65.8562	46.4814	-198.419	85.2236	53.0317	
38	0.316667	-167.453	54.9923	52.948	-137.455	58.2262	22.5921	-137.629	67.553	-6.9317	-157.284	64.5994	-29.3869	-159.563	119.883	-0.772742	-140.176	111.548	-28.1777	-140.515	77.8211	-16.1521	-177.27	123.295	-14.2378	-159.89	111.012	-43.1802	-161.446	73.3732	-27.1123	-195.611	111.956	-26.6155	-176.543	97.8865	-50.418	-175.416	66.5787	-36.9065	-213.87	92.427	-27.5896	-194.844	83.9992	-47.9149	-184.379	52.0427	-33.7892	-224.3	82.0921	23.2694	-232.299	63.7236	48.1962	-197.926	82.0205	53.7985	
39	0.325	-167.064	50.1129	51.9259	-140.945	51.4854	23.2974	-139.383	61.6313	-9.81548	-163.422	59.1858	-33.3213	-156.32	114.745	-7.96967	-141.747	105.051	-31.3664	-138.514	70.1373	-15.3357	-178.23	117.423	-22.3489	-158.802	100.543	-45.5452	-161.104	67.7541	-30.7287	-193.89	104.596	-28.2527	-176.284	87.0737	-51.7568	-178.035	56.0506	-34.8967	-212.131	86.2375	-32.0324	-192.29	72.5571	-47.6306	-187.968	45.029	-29.0023	-221.295	80.2743	24.6486	-233.387	58.7198	45.7657	-196.216	75.3684	53.4752	
40	0.333333	-160.184	44.9495	50.8527	-138.782	47.458	18.6297	-138.765	55.2597	-11.9375	-162.751	51.8059	-35.6256	-156.053	108.39	-11.4937	-139.998	94.5537	-33.8166	-141.084	62.6195	-19.3354	-176.181	110.101	-24.1723	-158.088	94.5323	-48.1871	-156.823	60.3862	-28.2362	-194.958	96.684	-33.4783	-175.384	78.727	-54.389	-176.145	49.1605	-32.321	-211.3	79.0486	-30.7388	-192.917	63.538	-49.7251	-185.954	38.3386	-27.8542	-222.7	76.4705	18.368	-231.943	54.2809	45.6017	-197.759	71.5194	50.1792	
41	0.341667	-160.108	38.7947	49.1675	-139.073	37.488	17.3927	-139.803	47.4697	-17.9773	-166.342	44.9309	-34.8868	-152.689	99.3983	-11.5154	-139.282	87.5875	-37.8391	-141.894	54.753	-22.7019	-173.894	102.75	-28.9759	-155.824	84.0598	-51.3779	-162.889	50.4525	-30.8422	-194.57	88.8025	-37.2059	-173.383	69.0385	-55.3999	-175.333	42.0178	-33.7709	-212.326	71.2549	-38.2908	-191.638	52.8207	-50.8023	-190.542	27.1137	-26.8197	-219.968	70.3096	17.8015	-228.298	49.5636	44.1285	-194.344	64.4807	48.9034	
42	0.35	-161.572	34.3737	42.6844	-135.43	32.8285	12.3803	-145.338	40.8938	-19.3782	-166.275	36.5068	-35.5114	-149.999	93.1104	-14.7125	-137.193	74.9735	-41.1261	-139.806	45.5275	-19.399	-171.177	93.8343	-34.8744	-156.732	71.5949	-55.1787	-160.441	42.198	-26.3479	-192.643	79.8411	-41.2856	-176.526	55.1661	-59.4477	-177.785	33.1343	-34.4667	-211.241	63.002	-41.9434	-190.391	43.6963	-52.52	-188.715	22.2411	-27.4595	-219.821	63.6408	16.2932	-229.882	43.2702	40.7777	-195.087	59.0915	44.4343	
43	0.358333	-161.594	29.5784	42.8667	-139.946	29.1966	10.467	-143.02	33.1386	-18.8575	-169.938	29.9105	-39.8626	-153.891	85.8696	-22.7276	-136.632	70.4455	-44.504	-140.63	39.4516	-25.2791	-174.696	84.7096	-36.5002	-153.684	60.9941	-55.8875	-163.079	35.7193	-29.3213	-189.995	72.1838	-46.7554	-175.442	49.0366	-61.6523	-181.572	24.5944	-35.38	-207.739	56.2684	-44.3789	-190.966	35.4658	-54.5703	-188.227	15.707	-29.7882	-218.606	60.7743	11.8363	-233.723	39.0313	37.401	-194.651	54.9116	42.8793	
44	0.366667	-166.743	24.49	42.0736	-137.974	23.3601	9.05427	-143.369	30.3312	-24.936	-169.645	25.3035	-38.165	-152.297	79.3586	-22.0858	-139.238	63.0506	-47.032	-143.7	33.0662	-23.1518	-172.913	78.7442	-36.3007	-157.939	56.8063	-58.8919	-163.407	29.3289	-28.7035	-191.574	65.016	-50.025	-176.726	41.3888	-62.9306	-183.371	18.7179	-34.97	-212.074	49.2901	-42.8346	-192.409	25.8202	-54.3772	-190.795	11.0763	-24.2977	-220.361	54.33	11.121	-229.409	36.9011	38.2595	-193.753	54.7665	39.9269	
45	0.375	-164.798	22.7662	40.9248	-140.185	21.4918	7.56397	-146.203	23.6465	-20.1007	-166.216	19.2165	-39.7219	-152.221	75.9541	-23.9429	-138.101	56.7747	-46.2772	-142.47	30.1519	-23.4231	-172.16	74.5515	-40.8345	-159.805	47.395	-58.6721	-165.012	24.8358	-29.7846	-190.39	62.3141	-46.7902	-176.632	37.4249	-62.3323	-183.577	15.1371	-32.4316	-210.973	44.439	-47.7469	-194.72	21.8629	-55.9788	-190.856	5.85807	-28.1707	-224.432	50.4972	9.36074	-231.699	34.3007	40.231	-196.058	49.5705	39.7462	
46	0.383333	-163.415	24.3327	40.7952	-138.139	19.2887	9.05623	-145.191	22.7234	-20.4485	-171.513	18.0555	-37.0748	-153.409	74.1572	-23.9969	-141.19	56.2659	-48.9272	-146.024	27.4547	-24.8981	-171.401	73.3121	-40.8547	-156.417	45.207	-58.3862	-165.716	23.2139	-29.7887	-196.244	58.4597	-49.5959	-175.683	33.6965	-62.4098	-184.387	11.9898	-36.4081	-211.354	42.1448	-48.8302	-193.523	23.7073	-56.2442	-192.46	4.94896	-29.7026	-220.862	51.104	9.20231	-233.211	31.6657	38.0577	-195.411	48.7479	38.8231	
47	0.391667	-163.425	21.1498	41.8046	-143.104	18.6364	9.70053	-143.74	22.6098	-23.7567	-168.633	15.3528	-42.033	-152.621	72.9264	-27.5379	-139.995	55.5761	-47.941	-141.124	26.3373	-24.1468	-174.463	71.2542	-39.4979	-159.839	45.1519	-60.5576	-164.88	22.0213	-28.423	-192.855	56.9687	-51.9941	-176.4	32.7334	-62.2133	-184.268	10.7281	-35.0758	-212.122	41.7905	-44.9406	-194.663	19.9532	-55.7737	-193.923	3.50575	-27.1399	-222.336	46.8785	9.887	-231.137	34.9827	37.2074	-195.975	49.1662	39.2135	
48	0.4	-166.27	18.5634	43.9701	-143.003	16.6403	11.3763	-142.969	21.2913	-22.1484	-170.849	16.3983	-37.4679	-152.915	71.8415	-25.5028	-141.54	51.6659	-48.9478	-143.161	24.7786	-24.4554	-175.065	69.7006	-40.4362	-156.037	44.309	-58.2059	-163.692	22.441	-25.6619	-191.695	56.9857	-46.2572	-179.506	28.8704	-62.9651	-181.944	12.4786	-31.3666	-212.461	41.1135	-48.6416	-193.376	18.9068	-54.4468	-192.339	3.06562	-30.0101	-223.911	48.0861	9.9854	-232.199	34.2838	35.1361	-199.855	47.1562	38.3507	
49	0.408333	-162.424	20.9978	42.3873	-143.034	17.9437	12.3345	-144.968	21.8503	-18.9926	-169.697	17.0675	-39.8414	-152.132	71.8185	-27.5238	-139.103	50.4385	-47.0288	-141.254	26.5716	-23.4953	-172.954	70.8441	-41.3945	-159.001	44.8869	-59.0065	-169.324	22.0103	-25.9555	-192.958	57.5387	-49.4775	-177.068	29.2144	-61.1025	-184.814	10.5299	-34.2433	-212.933	43.4547	-41.1271	-193.642	23.7871	-54.3615	-193.663	0.514163	-28.7678	-221.74	51.8899	9.04438	-230.015	33.9381	37.6615	-196.925	48.6242	38.2168	
50	0.416667	-165.362	18.2714	45.57	-141.407	18.8843	11.9344	-144.409	21.6445	-17.5807	-166.734	16.7299	-41.8697	-151.409	71.5815	-21.4732	-141.615	51.2598	-48.2432	-140.468	27.2212	-24.5942	-173.352	70.4687	-40.5107	-158.689	45.0199	-58.9212	-167.794	22.4213	-29.2398	-192.452	58.7649	-46.5833	-178.886	28.75	-61.4321	-184.888	12.1367	-31.239	-211.721	42.9973	-45.92	-195.695	22.5045	-57.5769	-190.966	4.08222	-30.0584	-222.031	50.8636	10.95	-233.558	36.4495	36.7366	-197.503	49.9272	38.3605	
